<svg id="Capa_1" enable-background="new 0 0 512 512" height="512" viewBox="0 0 512 512" width="512" xmlns="http://www.w3.org/2000/svg"><g><path d="m245 11c-135.31 0-245 109.69-245 245s109.69 245 245 245c55.022 0 105.807-18.139 146.703-48.762l-.333-1h-226.724c13.229-13.255 20.77-31.358 20.77-50.06s-7.54-36.805-20.77-50.06h271.699c4.962 0 9 4.037 9 9v35.164l1 .313c27.514-39.608 43.655-87.713 43.655-139.595 0-135.31-109.69-245-245-245z" fill="#ffec8c"/><g><g><path d="m184.416 89.06c0 20.134-8.57 38.296-22.242 51.06h274.171c5.523 0 10-4.477 10-10v-82.12c0-5.523-4.477-10-10-10h-274.171c13.672 12.764 22.242 30.925 22.242 51.06z" fill="#fd8087"/></g><g><g><g><g><g><g><g><g><circle cx="114.536" cy="89.059" fill="#fff" r="63.381"/></g></g></g></g><path d="m72 89.059c0-31.452 22.915-57.54 52.958-62.513-3.392-.562-6.871-.868-10.423-.868-35.004 0-63.381 28.376-63.381 63.381s28.376 63.381 63.381 63.381c3.552 0 7.03-.306 10.423-.868-30.043-4.973-52.958-31.06-52.958-62.513z" fill="#eaf6ff"/><g><g><g><g><path d="m114.536 152.44c-13.039 0-25.157-3.939-35.233-10.69 2.981-16.761 17.615-29.491 35.233-29.491s32.252 12.73 35.233 29.491c-10.076 6.751-22.194 10.69-35.233 10.69z" fill="#fd8087"/></g></g></g></g><g><g><g><g><path d="m114.536 159.94c-39.084 0-70.881-31.797-70.881-70.881s31.797-70.881 70.881-70.881 70.88 31.797 70.88 70.881-31.797 70.881-70.88 70.881zm0-126.761c-30.813 0-55.881 25.068-55.881 55.881s25.068 55.881 55.881 55.881 55.88-25.068 55.88-55.881-25.068-55.881-55.88-55.881z" fill="#fd4755"/></g></g></g></g></g><g><g><g><g><circle cx="114.536" cy="89.059" fill="#fd8087" r="35.798"/></g></g></g></g><path d="m99.404 89.059c0-16.177 10.733-29.842 25.465-34.277-3.272-.985-6.74-1.521-10.333-1.521-19.771 0-35.798 16.027-35.798 35.798s16.027 35.798 35.798 35.798c3.594 0 7.061-.536 10.333-1.521-14.732-4.435-25.465-18.099-25.465-34.277z" fill="#fe646f"/></g></g></g><g><g><path d="m102.037 98.779c-4.142 0-7.5-3.357-7.5-7.5v-3.56c0-4.143 3.358-7.5 7.5-7.5s7.5 3.357 7.5 7.5v3.56c0 4.143-3.358 7.5-7.5 7.5z" fill="#fd4755"/></g><g><path d="m127.037 98.779c-4.142 0-7.5-3.357-7.5-7.5v-3.56c0-4.143 3.358-7.5 7.5-7.5s7.5 3.357 7.5 7.5v3.56c0 4.143-3.358 7.5-7.5 7.5z" fill="#fd4755"/></g></g><g><g><path d="m283.345 81.56h-67c-4.142 0-7.5-3.357-7.5-7.5s3.358-7.5 7.5-7.5h67c4.142 0 7.5 3.357 7.5 7.5s-3.358 7.5-7.5 7.5z" fill="#fd4755"/></g><g><path d="m389.345 111.56h-173c-4.142 0-7.5-3.357-7.5-7.5s3.358-7.5 7.5-7.5h173c4.142 0 7.5 3.357 7.5 7.5s-3.358 7.5-7.5 7.5z" fill="#fd4755"/></g></g></g><g><g><path d="m371.239 245.119c0-20.134 8.57-38.296 22.242-51.06h-263.722c3.903 4.941 6.241 11.171 6.241 17.941 0 15.212-11.776 27.718-26.69 28.9v45.279c0 5.523 4.477 10 10 10h274.17c-13.671-12.764-22.241-30.926-22.241-51.06z" fill="#8ac9fe"/></g><path d="m143 286.179v-82.119c0-5.523 4.477-10 10-10h-21.954c3.74 5.003 5.954 11.213 5.954 17.94 0 15.791-12.202 28.722-27.69 29.903v44.276c0 5.523 4.477 10 10 10h33.69c-5.523 0-10-4.477-10-10z" fill="#60b7ff"/><g><g><g><g><g><g><g><g><circle cx="441.119" cy="245.119" fill="#fff" r="63.381"/></g></g></g></g><path d="m398.239 245.119c0-31.513 23.003-57.643 53.131-62.544-3.338-.543-6.759-.837-10.25-.837-35.004 0-63.381 28.376-63.381 63.381s28.376 63.381 63.381 63.381c3.491 0 6.912-.294 10.25-.837-30.129-4.901-53.131-31.031-53.131-62.544z" fill="#eaf6ff"/><g><g><g><g><path d="m441.119 308.5c13.039 0 25.157-3.94 35.233-10.69-2.981-16.761-17.615-29.491-35.233-29.491s-32.252 12.73-35.233 29.491c10.076 6.75 22.194 10.69 35.233 10.69z" fill="#8ac9fe"/></g></g></g></g><g><g><g><g><path d="m370.239 245.119c0-39.084 31.797-70.881 70.88-70.881 39.084 0 70.881 31.797 70.881 70.881s-31.797 70.881-70.881 70.881c-39.083 0-70.88-31.797-70.88-70.881zm15 0c0 30.813 25.068 55.881 55.88 55.881 30.813 0 55.881-25.068 55.881-55.881s-25.068-55.881-55.881-55.881c-30.812 0-55.88 25.069-55.88 55.881z" fill="#60b7ff"/></g></g></g></g></g><g><g><g><g><circle cx="441.119" cy="245.119" fill="#8ac9fe" r="35.798"/></g></g></g></g><path d="m426 245.119c0-16.175 10.73-29.838 25.459-34.276-3.274-.986-6.744-1.522-10.339-1.522-19.771 0-35.798 16.027-35.798 35.798s16.027 35.798 35.798 35.798c3.596 0 7.065-.536 10.339-1.522-14.729-4.438-25.459-18.101-25.459-34.276z" fill="#60b7ff"/></g></g></g><g><g><path d="m453.618 254.839c-4.142 0-7.5-3.357-7.5-7.5v-3.56c0-4.143 3.358-7.5 7.5-7.5s7.5 3.357 7.5 7.5v3.56c0 4.142-3.358 7.5-7.5 7.5z" fill="#0593fc"/></g><g><path d="m428.618 254.839c-4.142 0-7.5-3.357-7.5-7.5v-3.56c0-4.143 3.358-7.5 7.5-7.5s7.5 3.357 7.5 7.5v3.56c0 4.142-3.358 7.5-7.5 7.5z" fill="#0593fc"/></g></g><g><g><path d="m339.31 237.619h-67c-4.142 0-7.5-3.357-7.5-7.5s3.358-7.5 7.5-7.5h67c4.142 0 7.5 3.357 7.5 7.5s-3.358 7.5-7.5 7.5z" fill="#0593fc"/></g><g><path d="m339.31 267.619h-173c-4.142 0-7.5-3.357-7.5-7.5s3.358-7.5 7.5-7.5h173c4.142 0 7.5 3.357 7.5 7.5s-3.358 7.5-7.5 7.5z" fill="#0593fc"/></g></g></g><g><path d="m446.345 360.119c0-5.523-4.477-10-10-10h-274.171c13.671 12.764 22.242 30.925 22.242 51.06s-8.57 38.296-22.242 51.06h229.529c21.113-15.809 39.578-34.955 54.642-56.642z" fill="#8bc727"/><g><g><g><g><g><g><g><g><circle cx="114.536" cy="401.178" fill="#fff" r="63.381"/></g></g></g></g><path d="m72 401.178c0-31.452 22.915-57.54 52.958-62.513-3.392-.562-6.871-.868-10.423-.868-35.004 0-63.381 28.376-63.381 63.381s28.376 63.381 63.381 63.381c3.552 0 7.03-.306 10.423-.868-30.043-4.973-52.958-31.06-52.958-62.513z" fill="#eaf6ff"/><g><g><g><g><path d="m114.536 464.559c-13.039 0-25.157-3.94-35.233-10.69 2.981-16.761 17.615-29.491 35.233-29.491s32.252 12.73 35.233 29.491c-10.076 6.751-22.194 10.69-35.233 10.69z" fill="#8bc727"/></g></g></g></g><g><g><g><g><path d="m114.536 472.06c-39.084 0-70.881-31.797-70.881-70.881s31.797-70.881 70.881-70.881 70.88 31.797 70.88 70.881-31.797 70.881-70.88 70.881zm0-126.762c-30.813 0-55.881 25.068-55.881 55.881s25.068 55.881 55.881 55.881 55.88-25.068 55.88-55.881-25.068-55.881-55.88-55.881z" fill="#81b823"/></g></g></g></g></g><g><g><g><g><circle cx="114.536" cy="401.178" fill="#8bc727" r="35.798"/></g></g></g></g><path d="m99.404 401.178c0-16.177 10.733-29.842 25.465-34.277-3.272-.985-6.74-1.521-10.333-1.521-19.771 0-35.798 16.027-35.798 35.798s16.027 35.798 35.798 35.798c3.594 0 7.061-.536 10.333-1.521-14.732-4.434-25.465-18.099-25.465-34.277z" fill="#81b823"/></g></g></g><g><g><path d="m102.037 410.898c-4.142 0-7.5-3.357-7.5-7.5v-3.56c0-4.143 3.358-7.5 7.5-7.5s7.5 3.357 7.5 7.5v3.56c0 4.143-3.358 7.5-7.5 7.5z" fill="#0593fc"/></g><g><path d="m127.037 410.898c-4.142 0-7.5-3.357-7.5-7.5v-3.56c0-4.143 3.358-7.5 7.5-7.5s7.5 3.357 7.5 7.5v3.56c0 4.143-3.358 7.5-7.5 7.5z" fill="#0593fc"/></g></g><g><g><path d="m283.345 393.679h-67c-4.142 0-7.5-3.357-7.5-7.5s3.358-7.5 7.5-7.5h67c4.142 0 7.5 3.357 7.5 7.5s-3.358 7.5-7.5 7.5z" fill="#78a91f"/></g><g><path d="m389.345 423.679h-173c-4.142 0-7.5-3.357-7.5-7.5s3.358-7.5 7.5-7.5h173c4.142 0 7.5 3.357 7.5 7.5s-3.358 7.5-7.5 7.5z" fill="#78a91f"/></g></g></g><g><g><circle cx="107" cy="212" fill="#fe646f" r="30"/></g><path d="m100.785 225.061-2.214 1.164c-1.24.652-2.689-.401-2.452-1.782l1.459-8.51c.094-.548-.088-1.108-.486-1.496l-6.183-6.027c-1.003-.978-.45-2.681.937-2.883l6.892-1.002c2.455-9.566 9.497-17.293 18.654-20.675-3.238-1.195-6.738-1.85-10.392-1.85-16.569 0-30 13.431-30 30s13.431 30 30 30c3.654 0 7.154-.655 10.392-1.851-7.294-2.694-13.243-8.148-16.607-15.088z" fill="#fd4755"/><g><path d="m108.516 195.618 3.821 7.743c.246.499.722.845 1.273.925l8.545 1.242c1.386.201 1.94 1.905.937 2.883l-6.183 6.027c-.398.388-.58.948-.486 1.496l1.46 8.51c.237 1.381-1.212 2.434-2.452 1.782l-7.643-4.018c-.492-.259-1.081-.259-1.573 0l-7.643 4.018c-1.24.652-2.689-.401-2.452-1.782l1.46-8.51c.094-.548-.088-1.108-.486-1.496l-6.183-6.027c-1.003-.978-.45-2.681.937-2.883l8.545-1.242c.55-.08 1.026-.426 1.273-.925l3.821-7.743c.617-1.256 2.409-1.256 3.029 0z" fill="#fff"/></g><g><path d="m103.507 222.274 1.46-8.51c.094-.548-.088-1.108-.486-1.496l-6.183-6.027c-.46-.448-.58-1.046-.455-1.585l-5.996.871c-1.386.201-1.94 1.905-.937 2.883l6.183 6.027c.398.388.58.948.486 1.496l-1.459 8.51c-.237 1.381 1.212 2.434 2.452 1.782l5.204-2.736c-.228-.337-.349-.754-.269-1.215z" fill="#eaf6ff"/></g></g></g></svg>